<svg xmlns="http://www.w3.org/2000/svg" viewBox="0 0 4936.35 2466.65"><defs><style>.cls-1{font-size:667.37px;font-family:GRENDELBOLD, GRENDEL;}.cls-1,.cls-12{fill:#fff;}.cls-2{letter-spacing:0.03em;}.cls-3{letter-spacing:0.06em;}.cls-4{letter-spacing:0em;}.cls-5{letter-spacing:0.1em;}.cls-6{letter-spacing:0.12em;}.cls-7{letter-spacing:0.02em;}.cls-8{letter-spacing:0.13em;}.cls-9{fill:#93070a;}.cls-10{fill:#063;}.cls-11{fill:#ffbc00;}</style></defs><g id="Camada_2" data-name="Camada 2"><g id="Camada_1-2" data-name="Camada 1"><text class="cls-1" transform="translate(881.24 1761.1) scale(0.8 1)"><tspan class="cls-2">A</tspan><tspan class="cls-3" x="595.28" y="0">N</tspan><tspan class="cls-4" x="1257.96" y="0">D</tspan><tspan class="cls-5" x="1865.26" y="0">E</tspan><tspan class="cls-6" x="2381.79" y="0">L</tspan><tspan x="2890.32" y="0">Á</tspan><tspan class="cls-7" x="3528.98" y="0">R</tspan><tspan class="cls-8" x="4124.25" y="0">I</tspan><tspan x="4479.95" y="0">A</tspan></text><path class="cls-9" d="M514.28,1719.56c-.16-12.55-.23-25.61-.23-39.25V635.49l-94.65-3s9,246.52,9,304.45v671.05q0,69.8,2,122c-274-5.91-348.59-318.52-348.59-734.06,0-316.62,47.56-555.95,177.76-664.93V1186.3q0,168.45,11.71,234.29,12.93,73.71,48.17,117.14,35.16,46.1,99.71,67.13-38.78-55.3-56.34-111.87-17.59-55.34-17.61-234.31V282.52c31.54-10.86,66.36-16.44,104.76-16.44,204.56,0,303.91,190.09,303.91,399.86h81.79c0-153-64.27-474.17-389.62-474.17-36.07,0-69.65,4-100.84,11.75V3.08L250.6,0s5.25,144.29,7.74,238.06C74,343.12,0,620.3,0,1000.22,0,1505,122.7,1804.35,424.66,1804.35c3.54,0,7-.1,10.45-.19q2.13,22.06,5,38,12.9,73.71,48.12,117.13,35.24,46.14,99.72,67.11-38.73-55.23-56.35-111.86-11.08-35-15.22-119.72c269.81-58.61,336.85-375,336.85-541.17H771.41c0,109.85-51.87,406.5-257.13,465.86"/><path class="cls-10" d="M4261.37,411c1.12-3.5,2.11-6.63,3.12-9.76q14.49-44.56,29-89.1c.47-1.46.12-2.08-1-2.92q-41.14-29.81-82.23-59.68c-.44-.32-.86-.67-1.71-1.33h2.29q50.73,0,101.47,0c1.45,0,2.1-.37,2.55-1.78q15.71-48.6,31.51-97.17c.15-.44.33-.87.64-1.71,1,3.15,1.95,5.9,2.85,8.66q14.7,45.27,29.39,90.55a1.73,1.73,0,0,0,2,1.45q36.65-.06,73.28,0h29c.42,0,.84,0,1.64.11-1.71,1.25-3.1,2.29-4.51,3.31q-39.68,28.86-79.38,57.67a2,2,0,0,0-.83,2.72q15.85,48.63,31.63,97.3c.13.41.22.83.42,1.59-1.53-1.08-2.78-1.94-4-2.83q-40.17-29.17-80.3-58.38a1.81,1.81,0,0,0-2.57.08q-41,29.88-82,59.69C4263,409.86,4262.33,410.29,4261.37,411Z"/><path class="cls-11" d="M3909.37,799c1.12-3.5,2.11-6.63,3.12-9.76q14.49-44.57,29-89.1c.47-1.46.12-2.08-1-2.92q-41.14-29.8-82.23-59.68c-.44-.32-.86-.67-1.71-1.33h2.29q50.73,0,101.47,0c1.45,0,2.1-.37,2.55-1.78q15.7-48.6,31.51-97.17c.15-.44.33-.87.64-1.71,1,3.15,1.95,5.9,2.85,8.66q14.7,45.27,29.39,90.55a1.73,1.73,0,0,0,2,1.45q36.64-.06,73.28,0h29c.42,0,.84.05,1.64.11-1.71,1.25-3.1,2.29-4.51,3.31q-39.68,28.86-79.38,57.67a2,2,0,0,0-.83,2.72q15.86,48.63,31.63,97.3c.13.41.22.83.42,1.59-1.53-1.08-2.78-1.94-4-2.83q-40.17-29.17-80.3-58.38a1.81,1.81,0,0,0-2.57.08q-41,29.88-82,59.69C3911,797.86,3910.33,798.29,3909.37,799Z"/><path class="cls-11" d="M4261.37,799c1.12-3.5,2.11-6.63,3.12-9.76q14.49-44.57,29-89.1c.47-1.46.12-2.08-1-2.92q-41.14-29.8-82.23-59.68c-.44-.32-.86-.67-1.71-1.33h2.29q50.73,0,101.47,0c1.45,0,2.1-.37,2.55-1.78q15.71-48.6,31.51-97.17c.15-.44.33-.87.64-1.71,1,3.15,1.95,5.9,2.85,8.66q14.7,45.27,29.39,90.55a1.73,1.73,0,0,0,2,1.45q36.65-.06,73.28,0h29c.42,0,.84.05,1.64.11-1.71,1.25-3.1,2.29-4.51,3.31q-39.68,28.86-79.38,57.67a2,2,0,0,0-.83,2.72q15.85,48.63,31.63,97.3c.13.41.22.83.42,1.59-1.53-1.08-2.78-1.94-4-2.83q-40.17-29.17-80.3-58.38a1.81,1.81,0,0,0-2.57.08q-41,29.88-82,59.69C4263,797.86,4262.33,798.29,4261.37,799Z"/><path class="cls-11" d="M4622.7,799c1.12-3.5,2.11-6.63,3.13-9.76q14.47-44.57,29-89.1c.47-1.46.12-2.08-1-2.92q-41.14-29.8-82.23-59.68c-.44-.32-.86-.67-1.7-1.33h2.28q50.73,0,101.47,0c1.46,0,2.1-.37,2.56-1.78q15.71-48.6,31.5-97.17c.15-.44.33-.87.64-1.71,1,3.15,1.95,5.9,2.85,8.66q14.72,45.27,29.39,90.55a1.74,1.74,0,0,0,2,1.45q36.65-.06,73.29,0h29c.42,0,.84.05,1.65.11-1.71,1.25-3.11,2.29-4.52,3.31q-39.68,28.86-79.38,57.67a2,2,0,0,0-.82,2.72q15.85,48.63,31.62,97.3c.13.41.22.83.42,1.59-1.52-1.08-2.78-1.94-4-2.83q-40.16-29.17-80.3-58.38a1.79,1.79,0,0,0-2.56.08q-41,29.88-82,59.69C4624.3,797.86,4623.67,798.29,4622.7,799Z"/><path class="cls-12" d="M2475.68,2104.65c-21.13,0-37.13-3.22-50.27-10.38-14-7.88-22.57-19.33-28.28-28.28l-6.28-9.66,16-15,6,9.67c9.71,15.39,21.14,29,62.84,29,38.28,0,60.56-22.55,60.56-57.63,0-31.5-21.42-40.81-61.7-53.34-40.27-12.17-77.69-28.28-77.69-78,0-47.25,28.85-74.1,78.83-74.1,25.14,0,47.71,14.32,63.7,39l6.29,9.67-16,15-6-9.66c-11.71-18.62-29.13-29.36-47.7-29.36-39.42,0-58.56,16.47-58.56,49,0,32.21,21.71,41.88,62.56,54.41,17.71,5.37,36.28,11.09,50.84,21.47,17.43,12.89,26.85,31.86,26.85,55.49,0,54.05-35.7,82.69-81.12,82.69Z"/><path class="cls-12" d="M2601.65,1816.84c8,0,14.57,8.24,14.57,18.26s-6.57,17.9-14.57,17.9-14.28-7.88-14.28-17.9S2593.65,1816.84,2601.65,1816.84Zm-9.42,73.39h20v214.42h-20Z"/><path class="cls-12" d="M2761.9,2104.65V1972.56c0-31.86-18.85-57.28-41.71-57.28s-41.7,25.42-41.7,57.28v132.09h-20V1972.56c0-45.46,28-82.33,61.7-82.33s61.7,36.87,61.7,82.33v132.09Z"/><path class="cls-12" d="M2886.72,2079.59h2.85v25.06h-2.85c-34,0-61.7-37.94-61.7-83.05V1816.84h20v78a35.61,35.61,0,0,1,8.86-1.07h35.7v25h-35.7c-8.86,0-9.14,5.37-9.14,8.24V2022C2845,2054.18,2863.87,2079.59,2886.72,2079.59Z"/><path class="cls-12" d="M2919.57,2040.22c0-36.16,28.56-64.44,61.7-64.44h34.84c1.15,0,6.86-.36,6.86-9.66V1954.3a39.46,39.46,0,0,0-73.41-19.68l-6,10-16-15,6-10c11.14-18.61,30-29.35,50.28-29.35,31.7,0,59.13,29,59.13,64.43v85.91c0,36.16-28.57,64.08-61.7,64.08S2919.57,2076.37,2919.57,2040.22Zm61.41-38.66c-22.85.35-42,17.54-42,38.66,0,20.76,19.14,39,42,39,22.57,0,42-18.26,42-39v-40.1a25,25,0,0,1-7.43,1.08Z"/><path class="cls-12" d="M3164.64,1997.26c0-59.07,33.42-107,74.56-107,44.84,0,74.55,52.26,74.55,107,0,59.42-33.42,107.39-74.55,107.39C3194.35,2104.65,3164.64,2052.39,3164.64,1997.26Zm20-.36c0,45.82,24.85,82.69,54.56,82.69s54.56-36.87,54.56-82.69-24.86-82.33-54.56-82.33S3184.64,1951.08,3184.64,1996.9Z"/><path class="cls-12" d="M3432,2065.27l15.71-15.39c12.29,20.41,19.43,29.36,47.42,29.36,25.14,0,39.42-14.68,39.42-37.59,0-21.84-18.85-27.56-41.13-34.72-30.85-9.67-56.28-22.92-56.28-59.79,0-34.72,20.86-56.91,53.7-56.91,19.71,0,38.85,8.23,57.42,39.37l-15.71,15.4c-16-26.14-29.14-30.07-42.85-30.07-20,0-32,13.24-32,32.21,0,22.2,18.85,28.28,41.13,35.44,29.71,9.31,56,21.84,56,58.35,0,36.87-23.71,63.72-59.7,63.72C3461.14,2104.65,3446.57,2090,3432,2065.27Z"/><path class="cls-12" d="M3580.25,2000.48c0-58.71,30.56-110.25,72-110.25,32.28,0,54.84,22.91,54.84,53.69,0,33.29-26,57.64-61.41,57.64h-39.13c-4.86,0-5.43,6.08-5.43,8.59,0,30.42,24,69.09,51.42,69.09,16.56,0,28.85-6.81,42.27-29.36l16,15c-14,23.62-29.71,39.73-58.56,39.73C3609.1,2104.65,3580.25,2055.25,3580.25,2000.48Zm21.42-24a20.81,20.81,0,0,1,4.57-.72h38.85c25.13,0,41.7-14,41.7-32.22,0-12.88-9.71-28.63-34.56-28.63C3628.24,1914.93,3607.67,1941.06,3601.67,1976.5Z"/><path class="cls-12" d="M3840.47,2104.65V1972.56c0-31.86-18.85-57.28-41.71-57.28s-41.7,25.42-41.7,57.28v132.09h-20V1972.56c0-45.46,28-82.33,61.69-82.33s61.7,36.87,61.7,82.33v132.09Z"/><path class="cls-12" d="M3965.29,2079.59h2.86v25.06h-2.86c-34,0-61.7-37.94-61.7-83.05V1816.84h20v78a35.47,35.47,0,0,1,8.85-1.07h35.71v25h-35.71c-8.85,0-9.14,5.37-9.14,8.24V2022C3923.59,2054.18,3942.44,2079.59,3965.29,2079.59Z"/><path class="cls-12" d="M4021.56,1816.84c8,0,14.57,8.24,14.57,18.26s-6.57,17.9-14.57,17.9-14.28-7.88-14.28-17.9S4013.56,1816.84,4021.56,1816.84Zm-9.43,73.39h20v214.42h-20Z"/><path class="cls-12" d="M4302.34,1972.56v132.09h-20V1972.56c0-31.86-18.85-57.28-41.71-57.28s-41.7,25.42-41.7,57.28v132.09h-20V1972.56c0-31.86-18.86-57.28-41.71-57.28s-41.7,25.42-41.7,57.28v132.09h-20V1972.56c0-45.46,28-82.33,61.7-82.33,20.28,0,40.56,13.6,51.7,37.23,10.86-23.63,31.42-37.23,51.7-37.23C4274.92,1890.23,4302.34,1928.89,4302.34,1972.56Z"/><path class="cls-12" d="M4343.47,2000.48c0-58.71,30.57-110.25,72-110.25,32.27,0,54.84,22.91,54.84,53.69,0,33.29-26,57.64-61.41,57.64h-39.14c-4.85,0-5.42,6.08-5.42,8.59,0,30.42,24,69.09,51.41,69.09,16.57,0,28.85-6.81,42.28-29.36l16,15c-14,23.62-29.7,39.73-58.55,39.73C4372.32,2104.65,4343.47,2055.25,4343.47,2000.48Zm21.43-24a20.73,20.73,0,0,1,4.57-.72h38.84c25.14,0,41.71-14,41.71-32.22,0-12.88-9.71-28.63-34.56-28.63C4391.46,1914.93,4370.9,1941.06,4364.9,1976.5Z"/><path class="cls-12" d="M4603.7,2104.65V1972.56c0-31.86-18.86-57.28-41.71-57.28s-41.7,25.42-41.7,57.28v132.09h-20V1972.56c0-45.46,28-82.33,61.7-82.33s61.7,36.87,61.7,82.33v132.09Z"/><path class="cls-12" d="M4728.52,2079.59h2.85v25.06h-2.85c-34,0-61.7-37.94-61.7-83.05V1816.84h20v78a35.61,35.61,0,0,1,8.86-1.07h35.7v25h-35.7c-8.86,0-9.14,5.37-9.14,8.24V2022C4686.81,2054.18,4705.66,2079.59,4728.52,2079.59Z"/><path class="cls-12" d="M4758.22,1997.26c0-59.07,33.42-107,74.56-107,44.84,0,74.55,52.26,74.55,107,0,59.42-33.42,107.39-74.55,107.39C4787.93,2104.65,4758.22,2052.39,4758.22,1997.26Zm20-.36c0,45.82,24.85,82.69,54.56,82.69s54.55-36.87,54.55-82.69-24.85-82.33-54.55-82.33S4778.22,1951.08,4778.22,1996.9Z"/><path class="cls-12" d="M4072.7,2178.84c8,0,14.57,8.24,14.57,18.26s-6.57,17.9-14.57,17.9-14.28-7.88-14.28-17.9S4064.7,2178.84,4072.7,2178.84Zm-9.43,73.39h20v214.42h-20Z"/><path class="cls-12" d="M4192.1,2441.59H4195v25.06h-2.85c-34,0-61.7-37.94-61.7-83.05V2178.84h20v78a35.55,35.55,0,0,1,8.86-1.07H4195v25.05h-35.7c-8.86,0-9.14,5.37-9.14,8.24V2384C4150.39,2416.18,4169.24,2441.59,4192.1,2441.59Z"/><path class="cls-12" d="M4231.51,2384.32V2252.23h20v132.09c0,31.86,18.86,57.27,41.71,57.27s41.7-25.41,41.7-57.27V2252.23h20v132.09c0,45.46-28,82.33-61.7,82.33S4231.51,2429.78,4231.51,2384.32Z"/><path class="cls-12" d="M4404.61,2466.65l76-287.81h21.13l-76.26,287.81Z"/><path class="cls-12" d="M4632.26,2466.65c-21.14,0-37.13-3.22-50.27-10.38-14-7.88-22.57-19.33-28.28-28.28l-6.29-9.66,16-15,6,9.67c9.71,15.39,21.14,29,62.84,29,38.28,0,60.56-22.55,60.56-57.63,0-31.5-21.43-40.81-61.7-53.34-40.28-12.17-77.7-28.28-77.7-78,0-47.25,28.85-74.1,78.84-74.1,25.14,0,47.7,14.32,63.7,39l6.28,9.67-16,15-6-9.66c-11.71-18.62-29.14-29.36-47.7-29.36-39.42,0-58.56,16.47-58.56,49.05,0,32.21,21.71,41.88,62.56,54.41,17.71,5.37,36.27,11.09,50.84,21.47,17.42,12.89,26.85,31.86,26.85,55.49,0,54.05-35.7,82.69-81.12,82.69Z"/><path class="cls-12" d="M4910.47,2253.66c0,40.81-26.56,74.1-59.12,74.1h-66.27c-7.72,0-8.86,3.94-8.86,7.16v131.73h-20V2178.84h95.4C4884.19,2179.2,4910.47,2212.85,4910.47,2253.66Zm-59.12,49.4c21.7,0,39.41-21.84,39.41-49s-17.71-49.76-39.41-49.76h-75.13v99.87a27.36,27.36,0,0,1,7.71-1.07Z"/></g></g></svg>