<svg xmlns="http://www.w3.org/2000/svg" viewBox="0 0 4936.35 2267.14"><defs><style>.cls-1{fill:#fff;}.cls-2{fill:#93070a;}.cls-3{fill:#063;}.cls-4{fill:#ffbc00;}</style></defs><g id="Camada_2" data-name="Camada 2"><g id="Camada_1-2" data-name="Camada 1"><path class="cls-1" d="M1361.57,1758.43c0,1.79-.71,2.67-2.13,2.67H1158.68c-1.42,0-2.13-.88-2.13-2.67a3.14,3.14,0,0,1,2.66-3.33q25-6,25-42,0-21.35-8.52-52.72H983.48q-9.59,30-9.58,48.05,0,36.7,41,46.72a3.15,3.15,0,0,1,2.66,3.33c0,1.79-.71,2.67-2.13,2.67H849.29c-1.42,0-2.13-.88-2.13-2.67a3.15,3.15,0,0,1,2.66-3.33q30.88-7.33,59.11-62.07,12.78-24,33-80.75l152.3-421.11,159.22,420.44q25,66.08,37.81,87.43,26.63,44.71,67.63,56.06A3.15,3.15,0,0,1,1361.57,1758.43Zm-282.23-363.71-74.56,202.88H1155Z"/><path class="cls-1" d="M1860.54,1231.21a4,4,0,0,1-3.19,3.34q-30.36,7.35-39.41,62.07-4.28,23.36-4.26,80.75v393.07c-.72,3.11-2.66,3.34-5.86.67l-350.93-380.4,12.24,221.57q3.21,30.71,6.4,61.4,4.24,33.38,15.44,50.72,14.37,22.69,46.33,30a3.16,3.16,0,0,1,2.66,3.34c0,2.23-.71,3.33-2.13,3.33H1372.22c-1.78,0-2.67-1.1-2.67-3.33q0-2.67,3.2-3.34,30.35-7.34,39.4-61.4,4.26-23.35,4.27-81.42V1377.37q0-68.07-5.86-88.76-12.25-43.38-57.52-54.06a3.15,3.15,0,0,1-2.66-3.34c0-1.77.72-2.88,2.13-3.33h165.62a3.16,3.16,0,0,1,2.66,3.33,4,4,0,0,1-3.2,3.34,40.51,40.51,0,0,0-14.91,7.34,26,26,0,0,0-5.85,16.69q0,15.36,14.91,32.7,266.25,292.31,265.73,291l-16-207.55q-5.33-64.07-13.31-86.76-14.92-41.37-55.38-53.39a3.14,3.14,0,0,1-2.67-3.34q0-2.65,2.13-3.33h165.62A3.16,3.16,0,0,1,1860.54,1231.21Z"/><path class="cls-1" d="M2295.07,1299.28q67.09,78.09,67.1,188.87,0,111.46-65.5,192.2T2139,1761.1H1897.27a3.14,3.14,0,0,1-2.66-3.33,4,4,0,0,1,3.2-3.34q30.35-7.34,39.94-62.07,3.72-23.34,3.72-80.75V1376q0-67.4-5.85-88.09-12.25-43.38-57.52-54.72a3.15,3.15,0,0,1-2.66-3.34c0-1.77.72-2.67,2.13-2.67h142.72v-.67h1.06q45.26-10.66,84.67-10.68,13.3,0,27.7.67Q2229.57,1223.88,2295.07,1299.28Zm-59.64,346.37q24-53.39,24-130.81a524.74,524.74,0,0,0-3.19-56.72q-10.12-88.75-53.79-148.49t-99-59.73q-49,0-59.37,10T2033.6,1318v359.71q0,51.4,68.7,51.39,31.41,0,63.9-12Q2210.93,1701,2235.43,1645.65Z"/><path class="cls-1" d="M2730.14,1637.64a2.36,2.36,0,0,1,2.66,2.67V1761.1H2368a2.55,2.55,0,0,1-2.13-3.33,3.16,3.16,0,0,1,2.66-3.34q31.95-7.34,41.54-62.07,3.72-22.68,3.73-80.08V1378q0-68.07-5.86-88.76-12.26-42.69-59.64-54a3.15,3.15,0,0,1-2.67-3.34c0-1.77.72-2.67,2.13-2.67h367.45V1326q-.54,2.67-2.67,2.67t-2.66-3.34q-6.39-38.7-51.65-50-19.17-4.66-66.57-4.67h-70.83q-11.17,30-11.18,107.44v85.43l50.06-.67q63.9-.66,90.53-31.37l3.19-4c1.42,0,2.13,1.11,2.13,3.34v104.77c0,2.23-.71,3.34-2.13,3.34l-3.19-4q-26.64-30.67-90.53-31.36h-50.06v108.78q0,44,1.07,58.06,2.66,31.38,13.31,50.05h85.2q56.45,0,73.49-7.34,35.67-15.35,44.73-72.07C2727.82,1638.76,2728.71,1637.64,2730.14,1637.64Z"/><path class="cls-1" d="M3138,1638.31q2.13-.66,2.67,2.67v120.79h-352a3.15,3.15,0,0,1-2.67-3.34,4,4,0,0,1,3.2-3.33q30.36-7.33,39.41-62.07,4.24-23.35,4.26-80.75V1377.37q0-68.07-5.86-88.76-12.26-43.38-57.51-54.06a3.15,3.15,0,0,1-2.67-3.34c0-1.77.72-2.88,2.13-3.33h200.23q2.13.67,2.13,3.33a3.15,3.15,0,0,1-2.66,3.34q-30.88,7.35-39.94,62.07Q2925,1320,2925,1377.37v234.91q0,44.71,1.07,58.73,2.66,31.38,13.31,50h82q54.32,0,70.83-7.34,34.61-15.35,43.13-72.08C3135.73,1639.42,3136.62,1638.31,3138,1638.31Z"/><path class="cls-1" d="M3692.4,1757.77c0,1.78-.72,2.89-2.13,3.33H3488.44q-2.13-.66-2.13-3.33a3.15,3.15,0,0,1,2.66-3.34q25.56-6,25.56-42,0-21.35-8.52-52.72h-193.3q-9.59,31.38-9.59,48.72,0,36,41,46a3.16,3.16,0,0,1,2.66,3.34c0,1.78-.72,2.89-2.13,3.33H3178q-2.13-.66-2.13-3.33a3.16,3.16,0,0,1,2.66-3.34q30.88-7.34,59.11-62.07,12.78-24,33-81.42L3424,1188.5l159.75,422.44q25,66.07,38.34,87.43,26.63,44.72,67.64,56.06A3.16,3.16,0,0,1,3692.4,1757.77Zm-283.84-365L3334,1596.93h150.7Zm24.5-235.58q5.85,2,9.05-.67,104.91-62.07,136.33-80.09,14.37-11.34,14.38-32a43.48,43.48,0,0,0-4.26-19.35q-8.54-18-25.57-18a26.19,26.19,0,0,0-15.44,5.34q-63.37,62.73-118.75,119.46-3.2,2.67-4.26,8.67c-.72,4.45-.36,8.13,1.06,11A10.67,10.67,0,0,0,3433.06,1157.14Z"/><path class="cls-1" d="M4179.12,1759.1a4,4,0,0,1-2.66,3.34h-73q-32,0-51.66-12-26.09-16-50.59-59.39l-95.85-168.18q-19.71,2.69-66,0l-1.07,89.68q-.54,66.93,5.33,89,12.24,43.5,58,54.87a3.19,3.19,0,0,1,2.67,3.35c0,1.78-.72,2.68-2.14,2.68H3702a2.36,2.36,0,0,1-2.67-2.67,4,4,0,0,1,3.2-3.35q30.34-7.35,39.41-62.14,3.7-22.71,4.25-81.52l1.07-235.21q0-67.47-5.86-88.87-11.72-43.42-57.51-54.12a3.15,3.15,0,0,1-2.66-3.35q0-3.33,2.13-3.33h156q41-11.34,76.68-11.35,68.7,0,107.57,41.38,34.61,36.71,34.61,92.76,0,64.74-43.13,110.78-20.25,17.37-30.35,25.37L4104,1687.69q17,29.37,27.16,40a88.68,88.68,0,0,0,45.27,27.37C4178.23,1755.54,4179.12,1756.88,4179.12,1759.1Zm-301.41-264.94q39.95,0,67.63-29.37,29.82-32,29.82-84.09a199.32,199.32,0,0,0-6.39-48.71q-19.17-76.08-79.88-80.09-35.68,2-49,37.37l-.53,197.55A103.58,103.58,0,0,0,3877.71,1494.16Z"/><path class="cls-1" d="M4331.94,1613q0,68.07,5.86,88.76,12.24,43.38,57.51,54a3.17,3.17,0,0,1,2.67,3.34,2.56,2.56,0,0,1-2.13,3.34H4195.08a3.15,3.15,0,0,1-2.66-3.34,4,4,0,0,1,3.2-3.34q30.35-7.34,39.94-62.06,3.72-23.35,3.72-80.75V1378q0-68.07-5.85-88.76-12.26-43.37-57.52-54a3.15,3.15,0,0,1-2.66-3.34c0-1.77.71-2.89,2.13-3.34h201.29c1.42.45,2.13,1.57,2.13,3.34a3.15,3.15,0,0,1-2.66,3.34q-30.89,7.35-39.94,62.06-4.26,23.37-4.26,80.75Z"/><path class="cls-1" d="M4936.35,1758.43c0,1.79-.71,2.67-2.13,2.67H4733.46c-1.42,0-2.13-.88-2.13-2.67a3.14,3.14,0,0,1,2.66-3.33q25-6,25-42,0-21.35-8.52-52.72H4558.26q-9.59,30-9.59,48.05,0,36.7,41,46.72a3.15,3.15,0,0,1,2.66,3.33c0,1.79-.71,2.67-2.13,2.67H4424.06c-1.41,0-2.13-.88-2.13-2.67a3.15,3.15,0,0,1,2.67-3.33q30.88-7.33,59.11-62.07,12.78-24,33-80.75L4669,1191.17l159.22,420.44q25,66.08,37.81,87.43,26.63,44.71,67.63,56.06A3.15,3.15,0,0,1,4936.35,1758.43Zm-282.24-363.71-74.55,202.88h150.17Z"/><path class="cls-1" d="M4416.09,2141.09h15.07V2267h-15.07Z"/><path class="cls-1" d="M4489.6,2251.91h3.73V2267h-3.73a33.68,33.68,0,0,1-25-11,37.35,37.35,0,0,1-9.95-26v-88.9h15.08v33.73s.93-1.25,3.88-1.25h19.74v15.08h-18.49c-2.49,0-5,1.4-5,3.73v37.46C4469.71,2242.27,4478.88,2251.91,4489.6,2251.91Z"/><path class="cls-1" d="M4517.11,2230v-57.66h15.08V2230c0,12.44,9.17,21.92,19.74,21.92s19.74-9.48,19.74-21.92v-57.66h15.07V2230c0,20.36-15.54,37-34.81,37C4532.5,2267,4517.11,2250.2,4517.11,2230Z"/><path class="cls-1" d="M4617.83,2267.14l41.66-126h16l-41.81,126Z"/><path class="cls-1" d="M4696.79,2244l12-9c6.53,8.54,14.3,17.09,35.9,17.09,19.58,0,29.84-8.86,29.84-22.22,0-11.19-9.17-15.08-30.93-20.36-18.18-4.36-42.74-10.73-42.74-34.82,0-20.2,15.08-33.57,39.79-33.57,16,0,29.06,3.73,43.36,20.2l-12,9c-12-11.81-20.36-14.61-31.56-14.61-16.47,0-24.55,7.77-24.55,18.49,0,11.66,9.32,15.24,31.39,20.68,17.57,4.35,42.28,10.72,42.28,35,0,24.55-20.36,37.14-44.76,37.14C4727.88,2267,4712.49,2263.72,4696.79,2244Z"/><path class="cls-1" d="M4871.49,2141.09a33.73,33.73,0,0,1-.15,67.45h-31.71c-5.13,0-5.75,2.8-5.75,3.42v55H4818.8V2141.09Zm18.19,33.57a18.54,18.54,0,0,0-18.34-18.65h-37.46v38.39s1.09-.93,6.06-.93h31.4A18.89,18.89,0,0,0,4889.68,2174.66Z"/><path class="cls-1" d="M2367.93,2080.55c-20,0-35.21-2.44-47.67-7.86-13.28-6-21.41-14.63-26.82-21.4l-6-7.31,15.17-11.38,5.69,7.31c9.21,11.65,20,22,59.59,22,36.31,0,57.44-17.07,57.44-43.62,0-23.84-20.32-30.88-58.52-40.36-38.2-9.21-73.69-21.4-73.69-59.06,0-35.76,27.37-56.08,74.77-56.08,23.84,0,45.25,10.84,60.42,29.53l6,7.32L2419.14,1911l-5.69-7.31a57.51,57.51,0,0,0-45.24-22.22c-37.39,0-55.54,12.47-55.54,37.12,0,24.38,20.59,31.69,59.33,41.18,16.79,4.06,34.4,8.39,48.22,16.25,16.52,9.75,25.46,24.11,25.46,42,0,40.91-33.86,62.58-76.93,62.58Z"/><path class="cls-1" d="M2498.24,1862.74a13.87,13.87,0,0,1,13.82,13.82,13.64,13.64,0,0,1-13.82,13.54,13.41,13.41,0,0,1-13.54-13.54A13.64,13.64,0,0,1,2498.24,1862.74Zm-8.94,55.54h19v162.27h-19Z"/><path class="cls-1" d="M2661.05,2080.55v-100c0-24.11-17.88-43.35-39.55-43.35s-39.55,19.24-39.55,43.35v100h-19v-100c0-34.41,26.54-62.31,58.51-62.31s58.52,27.9,58.52,62.31v100Z"/><path class="cls-1" d="M2790.27,2061.59H2793v19h-2.71c-32.24,0-58.51-28.72-58.51-62.85v-155h19v59.06a42.22,42.22,0,0,1,8.4-.81H2793v19h-33.86c-8.4,0-8.67,4.06-8.67,6.23V2018C2750.72,2042.35,2768.6,2061.59,2790.27,2061.59Z"/><path class="cls-1" d="M2832.26,2031.79c0-27.36,27.09-48.77,58.52-48.77h33c1.08,0,6.5-.27,6.5-7.31v-8.94c0-15.71-16.26-29.53-37.39-29.53-13.54,0-25.46,5.69-32.23,14.63l-5.69,7.58-15.17-11.37,5.68-7.59c10.57-14.09,28.45-22.21,47.68-22.21,30.07,0,56.08,21.94,56.08,48.76v65c0,27.36-27.09,48.49-58.51,48.49S2832.26,2059.15,2832.26,2031.79Zm58.25-29.26c-21.68.27-39.83,13.27-39.83,29.26,0,15.71,18.15,29.53,39.83,29.53,21.4,0,39.82-13.82,39.82-29.53v-30.35a29.36,29.36,0,0,1-7,.82Z"/><path class="cls-1" d="M3086.37,1999.28c0-44.7,31.69-81,70.7-81,42.53,0,70.71,39.55,70.71,81,0,45-31.7,81.27-70.71,81.27C3114.54,2080.55,3086.37,2041,3086.37,1999.28Zm19-.27c0,34.67,23.57,62.58,51.74,62.58s51.75-27.91,51.75-62.58-23.57-62.31-51.75-62.31S3105.33,1964.33,3105.33,1999Z"/><path class="cls-1" d="M3440.44,2080.55c-20.05,0-35.22-2.44-47.68-7.86-13.28-6-21.41-14.63-26.82-21.4l-6-7.31,15.17-11.38,5.69,7.31c9.21,11.65,20,22,59.6,22,36.3,0,57.43-17.07,57.43-43.62,0-23.84-20.32-30.88-58.52-40.36-38.2-9.21-73.68-21.4-73.68-59.06,0-35.76,27.36-56.08,74.77-56.08,23.84,0,45.24,10.84,60.41,29.53l6,7.32L3491.64,1911l-5.69-7.31a57.5,57.5,0,0,0-45.24-22.22c-37.39,0-55.54,12.47-55.54,37.12,0,24.38,20.59,31.69,59.33,41.18,16.8,4.06,34.4,8.39,48.22,16.25,16.53,9.75,25.47,24.11,25.47,42,0,40.91-33.87,62.58-76.94,62.58Z"/><path class="cls-1" d="M3556.92,2001.72c0-44.43,29-83.44,68.27-83.44,30.61,0,52,17.34,52,40.63,0,25.2-24.65,43.62-58.24,43.62h-37.11c-4.61,0-5.15,4.6-5.15,6.5,0,23,22.75,52.29,48.76,52.29,15.71,0,27.36-5.15,40.09-22.22l15.18,11.38c-13.28,17.88-28.18,30.07-55.54,30.07C3584.28,2080.55,3556.92,2043.16,3556.92,2001.72Zm20.32-18.15a24.18,24.18,0,0,1,4.33-.55h36.85c23.84,0,39.55-10.56,39.55-24.38,0-9.75-9.21-21.67-32.78-21.67C3602.43,1937,3582.93,1956.75,3577.24,1983.57Z"/><path class="cls-1" d="M3814.55,2080.55v-100c0-24.11-17.88-43.35-39.55-43.35s-39.55,19.24-39.55,43.35v100h-19v-100c0-34.41,26.54-62.31,58.51-62.31s58.52,27.9,58.52,62.31v100Z"/><path class="cls-1" d="M3943.77,2061.59h2.71v19h-2.71c-32.24,0-58.51-28.72-58.51-62.85v-155h19v59.06a42.22,42.22,0,0,1,8.4-.81h33.86v19h-33.86c-8.4,0-8.67,4.06-8.67,6.23V2018C3904.22,2042.35,3922.1,2061.59,3943.77,2061.59Z"/><path class="cls-1" d="M4008,1862.74a13.87,13.87,0,0,1,13.81,13.82A13.64,13.64,0,0,1,4008,1890.1a13.41,13.41,0,0,1-13.55-13.54A13.65,13.65,0,0,1,4008,1862.74Zm-8.94,55.54h19v162.27h-19Z"/><path class="cls-1" d="M4285.11,1980.59v100h-19v-100c0-24.11-17.88-43.35-39.55-43.35s-39.55,19.24-39.55,43.35v100h-19v-100c0-24.11-17.88-43.35-39.56-43.35s-39.55,19.24-39.55,43.35v100h-19v-100c0-34.41,26.55-62.31,58.51-62.31a57.49,57.49,0,0,1,49,28.17,57.14,57.14,0,0,1,49-28.17C4259.1,1918.28,4285.11,1947.54,4285.11,1980.59Z"/><path class="cls-1" d="M4335,2001.72c0-44.43,29-83.44,68.27-83.44,30.61,0,52,17.34,52,40.63,0,25.2-24.65,43.62-58.24,43.62h-37.11c-4.61,0-5.15,4.6-5.15,6.5,0,23,22.75,52.29,48.76,52.29,15.71,0,27.36-5.15,40.09-22.22l15.18,11.38c-13.28,17.88-28.18,30.07-55.54,30.07C4362.31,2080.55,4335,2043.16,4335,2001.72Zm20.32-18.15a24.18,24.18,0,0,1,4.33-.55h36.85c23.84,0,39.55-10.56,39.55-24.38,0-9.75-9.21-21.67-32.78-21.67C4380.46,1937,4361,1956.75,4355.27,1983.57Z"/><path class="cls-1" d="M4592.58,2080.55v-100c0-24.11-17.88-43.35-39.55-43.35s-39.55,19.24-39.55,43.35v100h-19v-100c0-34.41,26.54-62.31,58.51-62.31s58.52,27.9,58.52,62.31v100Z"/><path class="cls-1" d="M4721.8,2061.59h2.71v19h-2.71c-32.24,0-58.51-28.72-58.51-62.85v-155h19v59.06a42.22,42.22,0,0,1,8.4-.81h33.86v19h-33.86c-8.4,0-8.67,4.06-8.67,6.23V2018C4682.25,2042.35,4700.13,2061.59,4721.8,2061.59Z"/><path class="cls-1" d="M4760.81,1999.28c0-44.7,31.7-81,70.71-81,42.53,0,70.7,39.55,70.7,81,0,45-31.69,81.27-70.7,81.27C4789,2080.55,4760.81,2041,4760.81,1999.28Zm19-.27c0,34.67,23.57,62.58,51.75,62.58s51.74-27.91,51.74-62.58-23.57-62.31-51.74-62.31S4779.77,1964.33,4779.77,1999Z"/><path class="cls-2" d="M514.28,1719.56c-.16-12.55-.23-25.61-.23-39.25V635.49l-94.65-3s9,246.52,9,304.45v671.05q0,69.8,2,122c-274-5.91-348.59-318.52-348.59-734.06,0-316.62,47.56-555.95,177.76-664.93V1186.3q0,168.45,11.71,234.29,12.93,73.71,48.17,117.14,35.16,46.1,99.71,67.13-38.78-55.3-56.34-111.87-17.59-55.34-17.61-234.31V282.52c31.54-10.86,66.36-16.44,104.76-16.44,204.56,0,303.91,190.09,303.91,399.86h81.79c0-153-64.27-474.17-389.62-474.17-36.07,0-69.65,4-100.84,11.75V3.08L250.6,0s5.25,144.29,7.74,238.06C74,343.12,0,620.3,0,1000.22,0,1505,122.7,1804.35,424.66,1804.35c3.54,0,7-.1,10.45-.19q2.13,22.06,5,38,12.9,73.71,48.12,117.13,35.24,46.14,99.72,67.11-38.73-55.23-56.35-111.86-11.08-35-15.22-119.72c269.81-58.61,336.85-375,336.85-541.17H771.41c0,109.85-51.87,406.5-257.13,465.86"/><path class="cls-3" d="M4230.33,668.34c1.12-3.5,2.11-6.64,3.13-9.76q14.47-44.57,29-89.1c.47-1.46.12-2.09-1-2.92q-41.14-29.8-82.23-59.68c-.44-.32-.86-.67-1.7-1.33h2.28q50.73,0,101.47,0c1.46,0,2.1-.37,2.56-1.78q15.7-48.6,31.5-97.17c.15-.44.33-.87.64-1.71,1,3.15,1.95,5.9,2.85,8.66q14.72,45.27,29.39,90.55a1.74,1.74,0,0,0,2,1.45q36.65-.06,73.29,0h29c.42,0,.84.05,1.65.11-1.71,1.25-3.11,2.29-4.52,3.31q-39.68,28.86-79.38,57.67a2,2,0,0,0-.82,2.72q15.86,48.63,31.62,97.3c.13.41.22.83.42,1.59-1.52-1.08-2.78-1.94-4-2.83q-40.16-29.17-80.3-58.38a1.79,1.79,0,0,0-2.56.08q-41,29.86-82,59.69C4231.93,667.24,4231.3,667.67,4230.33,668.34Z"/><path class="cls-4" d="M3878.33,1056.34c1.12-3.5,2.11-6.64,3.13-9.76q14.48-44.56,29-89.1c.47-1.46.12-2.09-1-2.92q-41.14-29.8-82.23-59.68c-.44-.32-.86-.67-1.7-1.33h2.28q50.73,0,101.47,0c1.46,0,2.1-.37,2.56-1.78q15.71-48.6,31.5-97.17c.15-.44.33-.87.64-1.71,1,3.15,2,5.9,2.85,8.66q14.71,45.27,29.39,90.55a1.74,1.74,0,0,0,2,1.45q36.64-.06,73.29,0h29c.42,0,.84.05,1.65.11-1.71,1.25-3.11,2.29-4.52,3.31q-39.68,28.86-79.38,57.67a2,2,0,0,0-.82,2.72q15.85,48.63,31.62,97.3c.13.41.22.83.42,1.59-1.52-1.08-2.78-1.94-4-2.83q-40.16-29.18-80.3-58.38a1.79,1.79,0,0,0-2.56.08q-41,29.86-82,59.69C3879.93,1055.24,3879.3,1055.67,3878.33,1056.34Z"/><path class="cls-4" d="M4230.33,1056.34c1.12-3.5,2.11-6.64,3.13-9.76q14.47-44.56,29-89.1c.47-1.46.12-2.09-1-2.92q-41.14-29.8-82.23-59.68c-.44-.32-.86-.67-1.7-1.33h2.28q50.73,0,101.47,0c1.46,0,2.1-.37,2.56-1.78q15.7-48.6,31.5-97.17c.15-.44.33-.87.64-1.71,1,3.15,1.95,5.9,2.85,8.66q14.72,45.27,29.39,90.55a1.74,1.74,0,0,0,2,1.45q36.65-.06,73.29,0h29c.42,0,.84.05,1.65.11-1.71,1.25-3.11,2.29-4.52,3.31q-39.68,28.86-79.38,57.67a2,2,0,0,0-.82,2.72q15.86,48.63,31.62,97.3c.13.41.22.83.42,1.59-1.52-1.08-2.78-1.94-4-2.83q-40.16-29.18-80.3-58.38a1.79,1.79,0,0,0-2.56.08q-41,29.86-82,59.69C4231.93,1055.24,4231.3,1055.67,4230.33,1056.34Z"/><path class="cls-4" d="M4591.67,1056.34c1.12-3.5,2.1-6.64,3.12-9.76q14.49-44.56,29-89.1c.48-1.46.13-2.09-1-2.92q-41.15-29.8-82.23-59.68c-.44-.32-.87-.67-1.71-1.33h2.28q50.74,0,101.48,0a2.19,2.19,0,0,0,2.55-1.78q15.7-48.6,31.51-97.17c.14-.44.32-.87.64-1.71,1,3.15,1.95,5.9,2.84,8.66q14.72,45.27,29.4,90.55a1.73,1.73,0,0,0,1.95,1.45q36.65-.06,73.29,0h29c.41,0,.83.05,1.64.11l-4.51,3.31q-39.69,28.86-79.39,57.67a2,2,0,0,0-.82,2.72q15.86,48.63,31.62,97.3c.13.41.22.83.42,1.59-1.52-1.08-2.77-1.94-4-2.83q-40.17-29.18-80.31-58.38a1.79,1.79,0,0,0-2.56.08q-41,29.86-82,59.69C4593.26,1055.24,4592.63,1055.67,4591.67,1056.34Z"/></g></g></svg>