<svg xmlns="http://www.w3.org/2000/svg" viewBox="0 0 4936.35 2026.45"><defs><style>.cls-1{font-size:667.37px;fill:#fff;font-family:GRENDELBOLD, GRENDEL;}.cls-2{letter-spacing:0.03em;}.cls-3{letter-spacing:0.06em;}.cls-4{letter-spacing:0em;}.cls-5{letter-spacing:0.1em;}.cls-6{letter-spacing:0.12em;}.cls-7{letter-spacing:0.02em;}.cls-8{letter-spacing:0.13em;}.cls-9{fill:#93070a;}.cls-10{fill:#063;}.cls-11{fill:#ffbc00;}</style></defs><g id="Camada_2" data-name="Camada 2"><g id="Camada_1-2" data-name="Camada 1"><text class="cls-1" transform="translate(881.24 1761.1) scale(0.8 1)"><tspan class="cls-2">A</tspan><tspan class="cls-3" x="595.28" y="0">N</tspan><tspan class="cls-4" x="1257.96" y="0">D</tspan><tspan class="cls-5" x="1865.26" y="0">E</tspan><tspan class="cls-6" x="2381.79" y="0">L</tspan><tspan x="2890.32" y="0">Á</tspan><tspan class="cls-7" x="3528.98" y="0">R</tspan><tspan class="cls-8" x="4124.25" y="0">I</tspan><tspan x="4479.95" y="0">A</tspan></text><path class="cls-9" d="M514.28,1719.56c-.16-12.55-.23-25.61-.23-39.25V635.49l-94.65-3s9,246.52,9,304.45v671.05q0,69.8,2,122c-274-5.91-348.59-318.52-348.59-734.06,0-316.62,47.56-555.95,177.76-664.93V1186.3q0,168.45,11.71,234.29,12.93,73.71,48.17,117.14,35.16,46.1,99.71,67.13-38.78-55.3-56.34-111.87-17.59-55.34-17.61-234.31V282.52c31.54-10.86,66.36-16.44,104.76-16.44,204.56,0,303.91,190.09,303.91,399.86h81.79c0-153-64.27-474.17-389.62-474.17-36.07,0-69.65,4-100.84,11.75V3.08L250.6,0s5.25,144.29,7.74,238.06C74,343.12,0,620.3,0,1000.22,0,1505,122.7,1804.35,424.66,1804.35c3.54,0,7-.1,10.45-.19q2.13,22.06,5,38,12.9,73.71,48.12,117.13,35.24,46.14,99.72,67.11-38.73-55.23-56.35-111.86-11.08-35-15.22-119.72c269.81-58.61,336.85-375,336.85-541.17H771.41c0,109.85-51.87,406.5-257.13,465.86"/><path class="cls-10" d="M4261.37,411c1.12-3.5,2.11-6.63,3.12-9.76q14.49-44.56,29-89.1c.47-1.46.12-2.08-1-2.92q-41.14-29.81-82.23-59.68c-.44-.32-.86-.67-1.71-1.33h2.29q50.73,0,101.47,0c1.45,0,2.1-.37,2.55-1.78q15.71-48.6,31.51-97.17c.15-.44.33-.87.64-1.71,1,3.15,1.95,5.9,2.85,8.66q14.7,45.27,29.39,90.55a1.73,1.73,0,0,0,2,1.45q36.65-.06,73.28,0h29c.42,0,.84,0,1.64.11-1.71,1.25-3.1,2.29-4.51,3.31q-39.68,28.86-79.38,57.67a2,2,0,0,0-.83,2.72q15.85,48.63,31.63,97.3c.13.41.22.83.42,1.59-1.53-1.08-2.78-1.94-4-2.83q-40.17-29.17-80.3-58.38a1.81,1.81,0,0,0-2.57.08q-41,29.88-82,59.69C4263,409.86,4262.33,410.29,4261.37,411Z"/><path class="cls-11" d="M3909.37,799c1.12-3.5,2.11-6.63,3.12-9.76q14.49-44.57,29-89.1c.47-1.46.12-2.08-1-2.92q-41.14-29.8-82.23-59.68c-.44-.32-.86-.67-1.71-1.33h2.29q50.73,0,101.47,0c1.45,0,2.1-.37,2.55-1.78q15.7-48.6,31.51-97.17c.15-.44.33-.87.64-1.71,1,3.15,1.95,5.9,2.85,8.66q14.7,45.27,29.39,90.55a1.73,1.73,0,0,0,2,1.45q36.64-.06,73.28,0h29c.42,0,.84.05,1.64.11-1.71,1.25-3.1,2.29-4.51,3.31q-39.68,28.86-79.38,57.67a2,2,0,0,0-.83,2.72q15.86,48.63,31.63,97.3c.13.41.22.83.42,1.59-1.53-1.08-2.78-1.94-4-2.83q-40.17-29.17-80.3-58.38a1.81,1.81,0,0,0-2.57.08q-41,29.88-82,59.69C3911,797.86,3910.33,798.29,3909.37,799Z"/><path class="cls-11" d="M4261.37,799c1.12-3.5,2.11-6.63,3.12-9.76q14.49-44.57,29-89.1c.47-1.46.12-2.08-1-2.92q-41.14-29.8-82.23-59.68c-.44-.32-.86-.67-1.71-1.33h2.29q50.73,0,101.47,0c1.45,0,2.1-.37,2.55-1.78q15.71-48.6,31.51-97.17c.15-.44.33-.87.64-1.71,1,3.15,1.95,5.9,2.85,8.66q14.7,45.27,29.39,90.55a1.73,1.73,0,0,0,2,1.45q36.65-.06,73.28,0h29c.42,0,.84.05,1.64.11-1.71,1.25-3.1,2.29-4.51,3.31q-39.68,28.86-79.38,57.67a2,2,0,0,0-.83,2.72q15.85,48.63,31.63,97.3c.13.41.22.83.42,1.59-1.53-1.08-2.78-1.94-4-2.83q-40.17-29.17-80.3-58.38a1.81,1.81,0,0,0-2.57.08q-41,29.88-82,59.69C4263,797.86,4262.33,798.29,4261.37,799Z"/><path class="cls-11" d="M4622.7,799c1.12-3.5,2.11-6.63,3.13-9.76q14.47-44.57,29-89.1c.47-1.46.12-2.08-1-2.92q-41.14-29.8-82.23-59.68c-.44-.32-.86-.67-1.7-1.33h2.28q50.73,0,101.47,0c1.46,0,2.1-.37,2.56-1.78q15.71-48.6,31.5-97.17c.15-.44.33-.87.64-1.71,1,3.15,1.95,5.9,2.85,8.66q14.72,45.27,29.39,90.55a1.74,1.74,0,0,0,2,1.45q36.65-.06,73.29,0h29c.42,0,.84.05,1.65.11-1.71,1.25-3.11,2.29-4.52,3.31q-39.68,28.86-79.38,57.67a2,2,0,0,0-.82,2.72q15.85,48.63,31.62,97.3c.13.41.22.83.42,1.59-1.52-1.08-2.78-1.94-4-2.83q-40.16-29.17-80.3-58.38a1.79,1.79,0,0,0-2.56.08q-41,29.88-82,59.69C4624.3,797.86,4623.67,798.29,4622.7,799Z"/></g></g></svg>